<svg width="258" height="240" viewBox="0 0 258 240" fill="none" xmlns="http://www.w3.org/2000/svg">
<g clip-path="url(#clip0_77_5671)">
<path d="M237.853 183.607L249.359 185.406C253.253 180.688 255.938 175.09 257.18 169.099C248.767 175.989 235.972 172.328 225.77 176.089C222.597 177.287 219.734 179.184 217.394 181.639C215.053 184.094 213.295 187.044 212.249 190.272L206.626 196.324C211.716 198.34 217.182 199.228 222.648 198.927C228.115 198.626 233.45 197.143 238.289 194.58C240.988 193.116 243.493 191.317 245.744 189.226C241.718 186.689 237.853 183.607 237.853 183.607Z" fill="#F2F2F2"/>
<path d="M233.768 165.196L244.868 161.673C246.251 155.712 246.159 149.504 244.599 143.587C240.141 153.508 227.057 155.94 219.603 163.859C217.297 166.346 215.58 169.321 214.579 172.563C213.578 175.805 213.32 179.23 213.822 182.586L211.488 190.512C216.942 190.045 222.231 188.401 226.989 185.693C231.747 182.984 235.862 179.276 239.05 174.823C240.813 172.308 242.253 169.58 243.336 166.704C238.602 166.23 233.768 165.196 233.768 165.196Z" fill="#F2F2F2"/>
<path d="M257.242 199.991C257.242 200.05 257.23 200.109 257.208 200.164C257.185 200.219 257.152 200.269 257.11 200.311C257.068 200.353 257.018 200.386 256.963 200.409C256.908 200.431 256.849 200.443 256.79 200.443H1.21002C1.09022 200.443 0.975321 200.395 0.890607 200.31C0.805892 200.226 0.758301 200.111 0.758301 199.991C0.758301 199.871 0.805892 199.756 0.890607 199.671C0.975321 199.586 1.09022 199.539 1.21002 199.539H256.79C256.849 199.539 256.908 199.55 256.963 199.573C257.018 199.596 257.068 199.629 257.11 199.671C257.152 199.713 257.185 199.763 257.208 199.818C257.23 199.873 257.242 199.931 257.242 199.991Z" fill="#CCCCCC"/>
<path d="M106.666 180.724C151.74 180.724 188.279 144.167 188.279 99.0714C188.279 53.976 151.74 17.4189 106.666 17.4189C61.5915 17.4189 25.0518 53.976 25.0518 99.0714C25.0518 144.167 61.5915 180.724 106.666 180.724Z" fill="#E6E6E6"/>
<path d="M176.891 99.0713C176.899 110.034 174.34 120.847 169.417 130.641C164.495 140.436 157.347 148.94 148.547 155.472C147.958 155.913 147.358 156.342 146.755 156.76C134.987 164.944 120.998 169.33 106.665 169.33C92.3334 169.33 78.3443 164.944 66.576 156.76C65.9725 156.342 65.3727 155.913 64.7843 155.472C55.99 148.935 48.8464 140.429 43.9247 130.636C39.003 120.842 36.4397 110.033 36.4397 99.0713C36.4397 88.1098 39.003 77.3002 43.9247 67.5069C48.8464 57.7136 55.99 49.2081 64.7843 42.6704C65.3727 42.2298 65.9725 41.8007 66.576 41.3829C78.3443 33.1988 92.3334 28.8123 106.665 28.8123C120.998 28.8123 134.987 33.1988 146.755 41.3829C147.358 41.8007 147.958 42.2298 148.547 42.6704C157.347 49.2023 164.495 57.7066 169.417 67.5013C174.34 77.2959 176.899 88.1083 176.891 99.0713Z" fill="white"/>
<path d="M106.665 163.254C142.096 163.254 170.818 134.518 170.818 99.0713C170.818 63.6242 142.096 34.8887 106.665 34.8887C71.2351 34.8887 42.5132 63.6242 42.5132 99.0713C42.5132 134.518 71.2351 163.254 106.665 163.254Z" fill="#BFF4FF"/>
<path opacity="0.2" d="M106.833 35.0681C105.86 35.0681 104.894 35.0936 103.932 35.1364C120.146 36.5619 135.212 44.1003 146.078 56.2245C156.944 68.3487 162.798 84.1519 162.452 100.433C162.107 116.713 155.589 132.254 144.218 143.906C132.848 155.558 117.475 162.45 101.215 163.186C103.067 163.346 104.94 163.433 106.833 163.433C123.847 163.433 140.164 156.671 152.195 144.635C164.226 132.598 170.985 116.273 170.985 99.2507C170.985 82.2285 164.226 65.9033 152.195 53.8668C140.164 41.8302 123.847 35.0681 106.833 35.0681Z" fill="black"/>
<path d="M106.855 30.3313C106.302 30.3323 105.771 30.5527 105.38 30.9442C104.989 31.3357 104.769 31.8664 104.768 32.4201V41.5348C104.768 42.0888 104.988 42.62 105.379 43.0118C105.771 43.4035 106.302 43.6236 106.855 43.6236C107.409 43.6236 107.94 43.4035 108.332 43.0118C108.723 42.62 108.943 42.0888 108.943 41.5348V32.4201C108.942 31.8664 108.722 31.3357 108.331 30.9442C107.939 30.5527 107.409 30.3323 106.855 30.3313Z" fill="white"/>
<path d="M148.547 42.6703C147.958 42.2297 147.359 41.8006 146.755 41.3828C146.393 41.3592 146.031 41.4305 145.705 41.5897C145.378 41.7489 145.099 41.9904 144.895 42.2905L139.767 49.8215C139.455 50.2793 139.338 50.8422 139.441 51.3863C139.544 51.9305 139.859 52.4113 140.317 52.723C140.775 53.0348 141.337 53.1519 141.881 53.0486C142.425 52.9453 142.906 52.6301 143.217 52.1724L148.346 44.6413C148.541 44.3556 148.661 44.0256 148.696 43.6814C148.732 43.3371 148.68 42.9896 148.547 42.6703Z" fill="white"/>
<path d="M171.846 77.0099C171.743 76.756 171.591 76.5249 171.399 76.3298C171.206 76.1347 170.977 75.9795 170.725 75.873C170.473 75.7665 170.202 75.7107 169.928 75.709C169.654 75.7073 169.382 75.7596 169.129 75.8629L160.686 79.2923C160.174 79.5012 159.765 79.905 159.55 80.4151C159.335 80.9252 159.331 81.4999 159.54 82.0127C159.748 82.5256 160.151 82.9348 160.661 83.1504C161.171 83.3659 161.745 83.3702 162.258 83.1623L170.7 79.7329C171.212 79.523 171.621 79.1186 171.835 78.6082C172.05 78.0979 172.054 77.5232 171.846 77.0099Z" fill="white"/>
<path d="M73.5646 49.8215L68.4362 42.2905C68.2318 41.9904 67.9528 41.7489 67.6266 41.5897C67.3004 41.4305 66.9383 41.3592 66.5762 41.3828C65.9726 41.8006 65.3728 42.2297 64.7845 42.6703C64.6511 42.9896 64.5996 43.3371 64.6348 43.6814C64.6699 44.0256 64.7905 44.3556 64.9856 44.6413L70.114 52.1723C70.4256 52.6301 70.9062 52.9453 71.4501 53.0486C71.994 53.1519 72.5566 53.0348 73.0142 52.723C73.4717 52.4113 73.7868 51.9305 73.89 51.3863C73.9932 50.8422 73.8762 50.2793 73.5646 49.8215Z" fill="white"/>
<path d="M52.6449 79.2923L44.2026 75.8629C43.6897 75.6546 43.115 75.6585 42.605 75.874C42.0951 76.0895 41.6915 76.4988 41.4831 77.0119C41.2747 77.525 41.2786 78.0999 41.4939 78.6102C41.7092 79.1205 42.1182 79.5243 42.631 79.7329L51.0733 83.1623C51.5861 83.3702 52.1605 83.3659 52.6702 83.1503C53.1798 82.9348 53.5831 82.5256 53.7914 82.0127C53.9996 81.4998 53.9959 80.9252 53.7809 80.4151C53.5659 79.905 53.1573 79.5012 52.6449 79.2923Z" fill="white"/>
<path d="M106.855 154.519C106.302 154.52 105.771 154.74 105.38 155.132C104.989 155.523 104.769 156.054 104.768 156.608V165.723C104.768 166.276 104.988 166.808 105.379 167.2C105.771 167.591 106.302 167.811 106.855 167.811C107.409 167.811 107.94 167.591 108.332 167.2C108.723 166.808 108.943 166.276 108.943 165.723V156.608C108.942 156.054 108.722 155.523 108.331 155.132C107.939 154.74 107.409 154.52 106.855 154.519Z" fill="white"/>
<path d="M148.346 153.501L143.217 145.97C143.063 145.744 142.865 145.55 142.636 145.399C142.407 145.249 142.15 145.145 141.881 145.094C141.612 145.043 141.335 145.045 141.067 145.101C140.798 145.157 140.544 145.265 140.317 145.42C140.09 145.574 139.896 145.771 139.746 146.001C139.596 146.23 139.492 146.487 139.441 146.756C139.39 147.026 139.392 147.303 139.448 147.571C139.504 147.84 139.612 148.094 139.767 148.321L144.895 155.852C145.099 156.152 145.378 156.394 145.705 156.553C146.031 156.712 146.393 156.783 146.755 156.76C147.359 156.342 147.958 155.913 148.547 155.472C148.68 155.153 148.732 154.805 148.696 154.461C148.661 154.117 148.541 153.787 148.346 153.501Z" fill="white"/>
<path d="M170.7 118.41L162.258 114.98C161.745 114.772 161.17 114.776 160.66 114.991C160.15 115.207 159.747 115.616 159.538 116.129C159.33 116.642 159.334 117.217 159.549 117.728C159.764 118.238 160.173 118.642 160.686 118.85L169.128 122.28C169.641 122.488 170.216 122.483 170.725 122.268C171.235 122.052 171.638 121.643 171.847 121.13C172.055 120.617 172.051 120.043 171.836 119.533C171.621 119.022 171.212 118.619 170.7 118.41Z" fill="white"/>
<path d="M73.0141 145.419C72.5565 145.108 71.994 144.991 71.4501 145.094C70.9063 145.197 70.4257 145.512 70.114 145.97L64.9856 153.501C64.7905 153.787 64.6699 154.117 64.6348 154.461C64.5996 154.805 64.6511 155.153 64.7845 155.472C65.3728 155.913 65.9726 156.342 66.5762 156.76C66.9383 156.783 67.3004 156.712 67.6266 156.553C67.9528 156.394 68.2318 156.152 68.4362 155.852L73.5646 148.321C73.7189 148.094 73.827 147.839 73.8829 147.571C73.9387 147.302 73.9412 147.026 73.8901 146.756C73.8389 146.487 73.7353 146.23 73.585 146.001C73.4347 145.771 73.2407 145.574 73.0141 145.419Z" fill="white"/>
<path d="M53.7913 116.127C53.6882 115.873 53.5361 115.642 53.3437 115.447C53.1512 115.252 52.9223 115.097 52.6699 114.99C52.4175 114.884 52.1466 114.828 51.8726 114.826C51.5987 114.824 51.3271 114.877 51.0734 114.98L42.6311 118.41C42.1187 118.618 41.71 119.022 41.4951 119.532C41.2801 120.042 41.2763 120.617 41.4846 121.13C41.6929 121.643 42.0961 122.052 42.6058 122.268C43.1155 122.483 43.6898 122.487 44.2026 122.279L52.6449 118.85C53.1571 118.64 53.5653 118.236 53.7802 117.725C53.9951 117.215 53.9991 116.64 53.7913 116.127Z" fill="white"/>
<path d="M109.564 98.035C109.757 99.1767 109.489 100.348 108.82 101.293C108.15 102.237 107.133 102.877 105.993 103.073L68.9446 109.378C68.3794 109.474 67.8009 109.458 67.242 109.33C66.683 109.203 66.1547 108.966 65.6871 108.635C65.2195 108.303 64.8218 107.882 64.5167 107.396C64.2116 106.911 64.0051 106.37 63.909 105.805C63.8128 105.239 63.829 104.66 63.9564 104.101C64.0839 103.542 64.3202 103.013 64.6518 102.546C64.9835 102.078 65.404 101.68 65.8893 101.375C66.3747 101.069 66.9154 100.863 67.4805 100.767L104.529 94.4617C105.67 94.2689 106.841 94.5368 107.785 95.2066C108.729 95.8765 109.369 96.8937 109.564 98.035Z" fill="#01657B"/>
<path d="M148.556 139.101C148.024 139.636 147.301 139.939 146.546 139.942C145.792 139.945 145.067 139.648 144.53 139.117L104.648 99.5289C104.113 98.9967 103.811 98.2736 103.808 97.5187C103.806 96.7637 104.103 96.0386 104.634 95.5026C105.166 94.9667 105.888 94.6637 106.643 94.6604C107.397 94.6571 108.122 94.9537 108.659 95.4849L148.54 135.073C149.076 135.605 149.378 136.328 149.381 137.083C149.384 137.839 149.087 138.564 148.556 139.101Z" fill="#01657B"/>
<path d="M106.665 104.009C109.391 104.009 111.6 101.798 111.6 99.0714C111.6 96.3447 109.391 94.1343 106.665 94.1343C103.94 94.1343 101.731 96.3447 101.731 99.0714C101.731 101.798 103.94 104.009 106.665 104.009Z" fill="#CCCCCC"/>
<path d="M72.6749 13.4613C65.1 25.3759 53.5425 33.283 39.2892 38.4775C39.0076 38.6885 38.6871 38.842 38.3462 38.9291C38.0053 39.0163 37.6505 39.0354 37.3022 38.9854C36.9539 38.9353 36.6188 38.8172 36.3162 38.6376C36.0135 38.458 35.7491 38.2206 35.5382 37.9388C27.7959 27.5965 29.5441 12.8152 39.7623 4.91251C42.2327 3.00522 45.0572 1.60789 48.0717 0.801624C51.0863 -0.00463756 54.231 -0.203766 57.3231 0.215805C60.4152 0.635377 63.3933 1.66529 66.0843 3.24574C68.7753 4.8262 71.1258 6.92572 72.9991 9.42242L73.2133 9.70848C73.4242 9.99026 73.5776 10.3108 73.6647 10.6519C73.7518 10.993 73.7709 11.348 73.7209 11.6964C73.6709 12.0449 73.5528 12.3801 73.3733 12.6829C73.1938 12.9858 72.9565 13.2502 72.6749 13.4613Z" fill="#E6E6E6"/>
<path d="M140.332 9.42217C142.205 6.92548 144.556 4.82595 147.247 3.24549C149.938 1.66504 152.916 0.635134 156.008 0.215563C159.1 -0.204008 162.245 -0.00488587 165.259 0.801376C168.274 1.60764 171.098 3.00498 173.569 4.91226C183.787 12.815 185.535 27.5962 177.793 37.9385C177.582 38.2203 177.318 38.4578 177.015 38.6373C176.712 38.8169 176.377 38.9351 176.029 38.9851C175.681 39.0351 175.326 39.016 174.985 38.9289C174.644 38.8417 174.324 38.6883 174.042 38.4772C160.81 33.4089 149.959 24.6383 140.656 13.461C140.087 13.0348 139.711 12.4 139.61 11.6962C139.509 10.9924 139.692 10.2773 140.118 9.70822L140.332 9.42217Z" fill="#E6E6E6"/>
<path d="M137.012 169.812C136.529 170.083 136.174 170.535 136.024 171.068C135.873 171.6 135.94 172.171 136.209 172.655L148.259 194.197C148.529 194.68 148.98 195.036 149.513 195.187C150.046 195.337 150.617 195.27 151.1 194.999C151.583 194.729 151.939 194.277 152.089 193.744C152.24 193.211 152.173 192.64 151.902 192.157L139.853 170.615C139.582 170.132 139.131 169.777 138.598 169.626C138.066 169.476 137.495 169.543 137.012 169.812Z" fill="#E6E6E6"/>
<path d="M73.4776 170.615L61.4285 192.157C61.1582 192.64 61.091 193.211 61.2415 193.744C61.392 194.277 61.748 194.729 62.2311 194.999C62.7142 195.27 63.285 195.337 63.8178 195.187C64.3506 195.036 64.8019 194.68 65.0723 194.197L77.1215 172.655C77.2555 172.416 77.341 172.152 77.3732 171.88C77.4054 171.607 77.3836 171.331 77.3091 171.067C77.2346 170.803 77.1089 170.556 76.9391 170.341C76.7692 170.125 76.5587 169.946 76.3194 169.812C76.0801 169.678 75.8167 169.592 75.5444 169.56C75.2721 169.528 74.9961 169.55 74.7322 169.624C74.4683 169.699 74.2217 169.825 74.0065 169.995C73.7912 170.165 73.6115 170.375 73.4776 170.615Z" fill="#E6E6E6"/>
<path d="M150.699 199.713C154.263 199.713 157.152 196.822 157.152 193.257C157.152 189.691 154.263 186.8 150.699 186.8C147.135 186.8 144.246 189.691 144.246 193.257C144.246 196.822 147.135 199.713 150.699 199.713Z" fill="#E6E6E6"/>
<path d="M155.254 34.5089C158.818 34.5089 161.707 31.6184 161.707 28.0527C161.707 24.487 158.818 21.5964 155.254 21.5964C151.69 21.5964 148.801 24.487 148.801 28.0527C148.801 31.6184 151.69 34.5089 155.254 34.5089Z" fill="#E6E6E6"/>
<path d="M106.286 19.3177C109.85 19.3177 112.739 16.4272 112.739 12.8615C112.739 9.29583 109.85 6.40527 106.286 6.40527C102.722 6.40527 99.8328 9.29583 99.8328 12.8615C99.8328 16.4272 102.722 19.3177 106.286 19.3177Z" fill="#E6E6E6"/>
<path d="M59.5953 33.7494C63.1593 33.7494 66.0484 30.8588 66.0484 27.2932C66.0484 23.7275 63.1593 20.8369 59.5953 20.8369C56.0313 20.8369 53.1421 23.7275 53.1421 27.2932C53.1421 30.8588 56.0313 33.7494 59.5953 33.7494Z" fill="#E6E6E6"/>
<path d="M63.7708 199.713C67.3348 199.713 70.224 196.822 70.224 193.257C70.224 189.691 67.3348 186.8 63.7708 186.8C60.2068 186.8 57.3176 189.691 57.3176 193.257C57.3176 196.822 60.2068 199.713 63.7708 199.713Z" fill="#E6E6E6"/>
<path d="M145.637 135.47C145.891 135.868 146.23 136.206 146.629 136.459C147.028 136.713 147.478 136.876 147.946 136.936C148.415 136.997 148.891 136.954 149.342 136.811C149.792 136.667 150.206 136.427 150.553 136.107L160.679 141.535L160.136 135.587L150.603 131.344C150.027 130.796 149.269 130.478 148.473 130.452C147.678 130.425 146.901 130.691 146.289 131.2C145.677 131.709 145.272 132.424 145.152 133.211C145.032 133.998 145.204 134.802 145.637 135.47Z" fill="#FFB7B7"/>
<path d="M153.015 137.546L156.983 132.065L176.1 141.107L199.888 136.641C201.064 136.42 202.274 136.461 203.432 136.761C204.59 137.061 205.669 137.612 206.59 138.376C207.511 139.139 208.253 140.096 208.763 141.179C209.274 142.262 209.539 143.443 209.541 144.64C209.543 146.802 208.687 148.876 207.162 150.408C205.637 151.939 203.567 152.803 201.406 152.809L174.145 152.86L153.015 137.546Z" fill="#01657B"/>
<path d="M146.903 232.196L142.888 230.275L148.404 213.486L154.329 216.322L146.903 232.196Z" fill="#FFB7B7"/>
<path d="M173.819 229.49C173.527 229.673 173.235 229.853 172.941 230.033C172.354 230.392 171.761 230.747 171.168 231.095C170.87 231.269 170.569 231.443 170.272 231.614V231.623L170.254 231.626L170.248 231.629L169.794 231.741L169.142 230.018L168.841 229.224L168.417 228.1L167.638 226.044L163.539 215.216L169.912 213.643L170.151 214.62H170.154L170.272 215.104L172.498 224.138L172.952 225.985L172.967 226.041L173.241 227.144L173.477 228.1L173.74 229.168L173.819 229.49Z" fill="#FFB7B7"/>
<path d="M211.835 191.464C211.431 192.113 211.019 192.76 210.603 193.4C209.83 194.592 209.037 195.766 208.223 196.923C208.223 196.926 208.22 196.925 208.217 196.928C207.742 197.369 207.218 197.752 206.654 198.07C206.63 198.088 206.604 198.1 206.58 198.115C206.165 198.344 205.723 198.521 205.265 198.643C205.1 198.684 204.932 198.725 204.767 198.767C204.171 198.908 203.581 199.029 202.994 199.135C201.95 199.321 200.918 199.454 199.892 199.537C199.809 199.545 199.727 199.551 199.644 199.557C195.424 199.867 191.316 199.368 187.028 198.551C184.911 198.15 182.749 197.669 180.511 197.17C179.78 197.005 179.045 196.843 178.302 196.681C178.246 196.669 178.187 196.654 178.128 196.642C177.067 196.409 175.987 196.179 174.881 195.952C173.49 195.666 172.053 195.388 170.561 195.126L170.667 197.229C170.756 198.848 171.092 200.443 171.664 201.959C172.301 203.824 172.805 205.299 171.741 208.37L171.228 209.857C171.494 210.596 171.585 211.386 171.494 212.165C171.404 212.945 171.134 213.693 170.706 214.351L170.602 214.507L174.881 225.338L175.159 226.04H172.968L170.272 226.043H165.704L159.113 212.813L158.798 212.182V212.15L159.479 186.726C159.488 186.502 159.505 186.275 159.535 186.05C159.655 185.031 159.977 184.046 160.482 183.152C160.986 182.259 161.664 181.475 162.475 180.846C163.252 180.238 164.142 179.791 165.093 179.531C166.045 179.271 167.038 179.202 168.016 179.329L170.272 179.621L174.881 180.217L178.128 180.639L178.193 180.648L187.769 181.887L188.456 179.084L188.583 179.037L192.614 177.559L206.557 172.446L206.592 172.434L207.509 172.098L207.618 172.275C207.651 172.328 207.683 172.381 207.713 172.434C208.619 174.06 209.357 175.774 209.916 177.55C210.854 180.451 211.627 183.404 212.231 186.393C212.257 186.522 212.281 186.64 212.301 186.747L212.31 186.779C212.319 186.829 212.325 186.862 212.328 186.871C212.649 188.21 212.425 189.845 211.835 191.464Z" fill="#2F2E41"/>
<path d="M212.424 182.095C212.38 181.906 212.324 181.714 212.265 181.528C211.797 180.121 211.251 178.74 210.631 177.392C209.935 175.858 209.1 174.214 208.107 172.435C207.626 171.574 207.109 170.678 206.556 169.748C206.278 169.281 205.99 168.806 205.691 168.322C205.68 168.3 205.667 168.279 205.653 168.258L205.568 168.116L191.772 169.963L186.635 170.65L186.328 173.211L186.255 173.846C186.252 173.846 186.252 173.846 186.255 173.849L186.048 175.578V175.58L185.774 177.864L185.75 177.861L178.127 176.873L170.271 175.855L166.051 175.309C165.073 175.182 164.079 175.25 163.128 175.51C162.177 175.771 161.287 176.218 160.51 176.826C159.699 177.454 159.022 178.239 158.517 179.132C158.012 180.026 157.69 181.011 157.57 182.03C157.543 182.237 157.525 182.449 157.517 182.658L153.535 192.097C151.153 197.741 149.636 203.713 149.035 209.811L146.116 219.149L146.532 219.187L152.719 219.763L154.352 219.916L157.95 214.662C158.36 214.063 158.749 213.446 159.112 212.815C159.709 211.783 160.24 210.715 160.701 209.616L168.484 191.088C169.086 191.191 169.681 191.289 170.271 191.383C172.999 191.825 175.618 192.186 178.127 192.466C186.287 193.377 193.353 193.448 199.643 192.675C201.409 192.46 203.117 192.176 204.765 191.825C205.37 191.699 205.967 191.562 206.556 191.415C206.694 191.383 206.83 191.35 206.965 191.315C208.184 191.001 209.305 190.385 210.224 189.525C211.144 188.666 211.833 187.589 212.229 186.394C212.702 185.009 212.77 183.517 212.424 182.095Z" fill="#2F2E41"/>
<path d="M148.186 229.455L143.842 227.372L143.161 227.044L142.073 229.718L134.476 231.39C134.1 231.473 133.761 231.673 133.507 231.962C133.253 232.251 133.099 232.614 133.066 232.997C133.033 233.381 133.123 233.765 133.324 234.093C133.525 234.421 133.825 234.676 134.181 234.822L141.604 237.852L143.96 235.73L143.382 238.578L146.177 239.719L149.241 229.962L148.186 229.455Z" fill="#2F2E41"/>
<path d="M174.881 225.338L175.159 226.04H174.881V225.338Z" fill="#2F2E41"/>
<path d="M173.369 226.19L168.817 227.768L168.103 228.015L169.209 230.68L164.988 237.217C164.779 237.54 164.679 237.921 164.702 238.305C164.725 238.689 164.87 239.056 165.116 239.351C165.362 239.647 165.697 239.856 166.07 239.948C166.443 240.04 166.836 240.01 167.192 239.862L174.597 236.79L174.779 233.624L176.371 236.054L179.16 234.898L174.476 225.808L173.369 226.19Z" fill="#2F2E41"/>
<path d="M211.289 186.37C211.019 186.369 210.752 186.303 210.513 186.177L186.494 173.621L186.217 172.484L185.694 168.887L185.701 168.853L187.985 158.317C187.943 158.226 187.856 158.078 187.757 157.91C186.737 156.182 183.634 150.92 189.557 143.676L199.956 131.546L208.882 131.162L208.983 131.29C211.37 134.287 212.979 137.827 213.669 141.597C214.358 145.366 214.106 149.247 212.935 152.895L212.006 169.688L213.002 173.079C213.585 175.072 213.489 177.202 212.728 179.134L212.957 184.626C212.966 184.851 212.929 185.075 212.85 185.286C212.77 185.497 212.649 185.689 212.493 185.852C212.337 186.015 212.15 186.144 211.943 186.233C211.737 186.322 211.514 186.369 211.289 186.37Z" fill="#01657B"/>
<path d="M190.454 200.219C190.861 199.978 191.21 199.651 191.477 199.261C191.744 198.871 191.923 198.427 192 197.961C192.076 197.494 192.05 197.016 191.923 196.561C191.795 196.106 191.569 195.684 191.261 195.326L197.036 185.39L191.076 185.726L186.506 195.109C185.938 195.667 185.594 196.414 185.54 197.208C185.486 198.002 185.725 198.789 186.212 199.419C186.698 200.048 187.399 200.478 188.181 200.625C188.963 200.773 189.772 200.628 190.454 200.219Z" fill="#FFB7B7"/>
<path d="M192.784 192.914L187.448 188.756L197.145 169.956L193.511 146.015C193.332 144.832 193.415 143.624 193.755 142.476C194.094 141.328 194.682 140.27 195.477 139.375C196.272 138.48 197.254 137.771 198.353 137.299C199.452 136.827 200.642 136.602 201.838 136.642C203.997 136.715 206.04 137.643 207.516 139.221C208.993 140.799 209.784 142.899 209.715 145.06L208.817 172.32L192.784 192.914Z" fill="#01657B"/>
<path d="M194.231 126.506V117.67C194.229 114.53 195.474 111.517 197.692 109.295C199.91 107.073 202.92 105.824 206.058 105.822C209.197 105.82 212.208 107.065 214.429 109.284C216.65 111.503 217.899 114.514 217.901 117.655V117.67C219.987 122.018 218.682 124.086 217.901 126.506C217.9 126.927 217.732 127.331 217.435 127.629C217.137 127.927 216.733 128.095 216.312 128.096H195.821C195.4 128.095 194.996 127.928 194.698 127.63C194.4 127.332 194.232 126.928 194.231 126.506Z" fill="#2F2E41"/>
<path d="M202.186 127.522C207.078 127.522 211.044 123.553 211.044 118.659C211.044 113.764 207.078 109.796 202.186 109.796C197.293 109.796 193.327 113.764 193.327 118.659C193.327 123.553 197.293 127.522 202.186 127.522Z" fill="#FFB7B7"/>
<path d="M211.457 120.982C211.376 120.969 211.296 120.953 211.216 120.94C209.834 120.695 208.452 120.454 207.075 120.204L206.948 117.08L205.279 119.879C201.471 121.143 197.909 120.428 194.558 118.851C193.452 118.326 192.38 117.735 191.346 117.08C191.628 115.352 192.292 113.709 193.29 112.271C194.288 110.833 195.595 109.636 197.114 108.768C197.241 108.696 197.364 108.633 197.491 108.569L197.492 108.569L197.493 108.568L197.494 108.567L197.495 108.565C197.71 108.464 197.93 108.366 198.15 108.278C199.87 107.605 201.746 107.435 203.559 107.786C205.372 108.138 207.049 108.998 208.393 110.265C211.097 112.848 212.315 117.114 211.457 120.982Z" fill="#2F2E41"/>
</g>
<defs>
<clipPath id="clip0_77_5671">
<rect width="256.484" height="240" fill="white" transform="translate(0.758301)"/>
</clipPath>
</defs>
</svg>
