<svg width="64" height="64" viewBox="0 0 64 64" fill="none" xmlns="http://www.w3.org/2000/svg">
<path d="M56.2489 1.24194H56.0331C54.4005 1.24194 53.0771 2.56519 53.0771 4.19794V59.7297C53.0771 61.3626 54.4005 62.6858 56.0331 62.6858H56.2489C57.8813 62.6858 59.205 61.3626 59.205 59.7297V4.19794C59.205 2.56519 57.8814 1.24194 56.2489 1.24194Z" fill="#8BE5F9"/>
<path d="M8.29021 1.24194H8.07465C6.44215 1.24194 5.11865 2.56519 5.11865 4.19794V59.7297C5.11865 61.3626 6.44221 62.6858 8.07465 62.6858H8.29021C9.9229 62.6858 11.2464 61.3626 11.2464 59.7297V4.19794C11.2464 2.56519 9.9229 1.24194 8.29021 1.24194Z" fill="#38AAC3"/>
<path d="M56.2165 1.24194H8.07465C6.44215 1.24194 5.11865 2.56519 5.11865 4.19794V4.40901C5.11865 6.04151 6.44221 7.36519 8.07465 7.36519H56.2165C57.8491 7.36519 59.1725 6.04151 59.1725 4.40901V4.19794C59.1725 2.56519 57.8491 1.24194 56.2165 1.24194Z" fill="#FFDEA7"/>
<path d="M56.2165 56.563H8.07465C6.44215 56.563 5.11865 57.8861 5.11865 59.5186V59.7299C5.11865 61.3629 6.44221 62.6861 8.07465 62.6861H56.2165C57.8491 62.6861 59.1725 61.3629 59.1725 59.7299V59.5186C59.1725 57.8861 57.8491 56.563 56.2165 56.563Z" fill="#38AAC3"/>
<path d="M44.8727 33.947H33.878C32.2454 33.947 30.9219 35.2705 30.9219 36.9031V37.1358C30.9219 38.7685 32.2454 40.0916 33.878 40.0916H44.8727C46.5052 40.0916 47.8287 38.7685 47.8287 37.1358V36.9031C47.8287 35.2705 46.5052 33.947 44.8727 33.947Z" fill="#5AD2ED"/>
<path d="M43.0793 12.428H32.0848C30.4522 12.428 29.1287 13.7514 29.1287 15.384V15.6167C29.1287 17.2492 30.4522 18.5727 32.0848 18.5727H43.0793C44.7119 18.5727 46.0354 17.2492 46.0354 15.6167V15.384C46.0354 13.7514 44.712 12.428 43.0793 12.428Z" fill="#8FECFF"/>
<path d="M47.3617 22.0676H16.323C14.6904 22.0676 13.3669 23.3909 13.3669 25.0236V25.2347C13.3669 26.8673 14.6905 28.1909 16.323 28.1909H47.3617C48.9943 28.1909 50.3177 26.8673 50.3177 25.2347V25.0236C50.3177 23.3908 48.9943 22.0676 47.3617 22.0676Z" fill="#5AD2ED"/>
<path d="M47.6648 45.3892H16.626C14.9935 45.3892 13.6702 46.7129 13.6702 48.3455V48.5565C13.6702 50.189 14.9935 51.5128 16.626 51.5128H47.6648C49.2974 51.5128 50.6208 50.189 50.6208 48.5565V48.3455C50.6208 46.7128 49.2974 45.3892 47.6648 45.3892Z" fill="#FFDEA7"/>
<path d="M22.2334 33.958H17.5881C15.9555 33.958 14.6321 35.2811 14.6321 36.9138V37.1249C14.6321 38.7573 15.9555 40.081 17.5881 40.081H22.2334C23.8661 40.081 25.1894 38.7573 25.1894 37.1249V36.9138C25.1894 35.2811 23.866 33.958 22.2334 33.958Z" fill="#38AAC3"/>
<path d="M17.8665 15.5003C17.8665 16.3123 18.189 17.0911 18.7632 17.6652C19.3373 18.2394 20.1161 18.562 20.9281 18.562C21.7401 18.562 22.5188 18.2394 23.093 17.6652C23.6671 17.0911 23.9897 16.3123 23.9897 15.5003C23.9897 14.6884 23.6671 13.9096 23.093 13.3354C22.5188 12.7613 21.7401 12.4387 20.9281 12.4387C20.1161 12.4387 19.3373 12.7613 18.7632 13.3354C18.189 13.9096 17.8665 14.6884 17.8665 15.5003Z" fill="#38AAC3"/>
</svg>
