<svg width="64" height="64" viewBox="0 0 64 64" fill="none" xmlns="http://www.w3.org/2000/svg">
<path d="M5.74318 14.9036C3.87449 14.9036 2.35986 16.4185 2.35986 18.2869C2.35986 20.1556 3.87449 21.6705 5.74318 21.6705C7.61186 21.6705 9.1268 20.1556 9.1268 18.2869C9.1268 16.4184 7.61186 14.9036 5.74318 14.9036Z" fill="#FFDEA7"/>
<path d="M5.74318 28.9041C3.87449 28.9041 2.35986 30.419 2.35986 32.2877C2.35986 34.1562 3.87449 35.6711 5.74318 35.6711C7.61186 35.6711 9.1268 34.1562 9.1268 32.2877C9.1268 30.419 7.61186 28.9041 5.74318 28.9041Z" fill="#38AAC3"/>
<path d="M5.74318 42.9048C3.87449 42.9048 2.35986 44.4196 2.35986 46.2881C2.35986 48.1568 3.87449 49.6717 5.74318 49.6717C7.61186 49.6717 9.1268 48.1568 9.1268 46.2881C9.1268 44.4196 7.61186 42.9048 5.74318 42.9048Z" fill="#8FECFF"/>
<path d="M58.8286 14.6702H20.5601C18.756 14.6702 17.2937 16.1327 17.2937 17.9369V18.1703C17.2937 19.9745 18.756 21.4371 20.5601 21.4371H58.8286C60.6329 21.4371 62.0954 19.9745 62.0954 18.1703V17.9369C62.0954 16.1327 60.6329 14.6702 58.8286 14.6702Z" fill="#8FECFF"/>
<path d="M58.8286 42.6711H20.5601C18.756 42.6711 17.2937 44.1336 17.2937 45.9379V46.1713C17.2937 47.9752 18.756 49.4381 20.5601 49.4381H58.8286C60.6329 49.4381 62.0954 47.9753 62.0954 46.1713V45.9379C62.0954 44.1336 60.6329 42.6711 58.8286 42.6711Z" fill="#38AAC3"/>
<path d="M44.3612 28.6707H20.5601C18.756 28.6707 17.2937 30.1332 17.2937 31.9375V32.1708C17.2937 33.9754 18.756 35.4377 20.5601 35.4377H44.3612C46.1653 35.4377 47.6281 33.9754 47.6281 32.1708V31.9375C47.6282 30.1332 46.1653 28.6707 44.3612 28.6707Z" fill="#FFDEA7"/>
</svg>
