<svg width="64" height="64" viewBox="0 0 64 64" fill="none" xmlns="http://www.w3.org/2000/svg">
<path d="M37.6627 3.73038C37.6627 2.13194 36.5681 0.835693 35.2185 0.835693H29.1072C27.7573 0.835693 26.6632 2.13194 26.6632 3.73038L24.2187 8.94113C24.2187 10.5393 25.313 11.8356 26.6632 11.8356H37.6627C39.0129 11.8356 40.1071 10.5393 40.1071 8.94113L37.6627 3.73038ZM56.3265 12.1104L52.0056 7.78894C51.051 6.83451 49.3607 6.97738 48.2303 8.10763L42.8173 10.0634C41.6868 11.1938 41.5443 12.8843 42.4992 13.839L50.2773 21.6171C51.2317 22.5713 52.9221 22.4292 54.0527 21.2985L56.0084 15.8856C57.1388 14.7553 57.2812 13.0648 56.3265 12.1104ZM60.3856 26.4531L55.1751 24.0086C53.5764 24.0086 52.2804 25.1032 52.2804 26.4531V37.4528C52.2804 38.8029 53.5764 39.8974 55.1751 39.8974L60.3856 37.4528C61.984 37.4528 63.2803 36.3584 63.2803 35.0084V28.8978C63.2803 27.5476 61.984 26.4531 60.3856 26.4531ZM56.0084 48.0209L54.0527 42.6078C52.9222 41.477 51.2317 41.3349 50.2773 42.2891L42.4992 50.0674C41.5443 51.022 41.6868 52.7122 42.8173 53.843L48.2303 55.7988C49.3607 56.9289 51.051 57.0718 52.0056 56.1172L56.3265 51.7957C57.2812 50.8411 57.1388 49.1511 56.0084 48.0209ZM37.6627 52.0708H26.6632C25.3129 52.0708 24.2186 53.3671 24.2186 54.9654L26.6632 60.1759C26.6632 61.7745 27.7572 63.0705 29.1072 63.0705H35.2185C36.5682 63.0705 37.6626 61.7745 37.6626 60.1759L40.107 54.9654C40.1071 53.3671 39.0127 52.0708 37.6627 52.0708ZM21.8264 50.0674L14.0485 42.2891C13.0938 41.3348 11.4036 41.477 10.2731 42.6078L8.31722 48.0209C7.18672 49.1511 7.04441 50.8411 7.99879 51.7958L12.3201 56.1172C13.2746 57.0718 14.9647 56.9289 16.0953 55.7988L21.5082 53.843C22.6387 52.7122 22.7812 51.0221 21.8264 50.0674ZM9.15047 24.0086L3.9401 26.4531C2.34116 26.4531 1.04541 27.5476 1.04541 28.8978V35.0084C1.04541 36.3586 2.34116 37.4528 3.9401 37.4528L9.15047 39.8974C10.7492 39.8974 12.0452 38.8028 12.0452 37.4528V26.4531C12.0452 25.1032 10.7492 24.0086 9.15047 24.0086ZM21.5083 10.0634L16.0953 8.10763C14.9648 6.97744 13.2747 6.83457 12.3202 7.78894L7.99885 12.1104C7.04441 13.0648 7.18679 14.7553 8.31729 15.8855L10.2732 21.2984C11.4036 22.4291 13.0938 22.5713 14.0486 21.6171L21.8265 13.8389C22.7812 12.8843 22.6387 11.1938 21.5083 10.0634Z" fill="#38AAC3"/>
<path d="M49.4076 32.7141C49.3261 42.1782 41.6304 49.8738 32.1664 49.9553C27.5838 49.9947 23.2361 48.114 19.9754 44.9056C16.6941 41.6773 14.9649 37.2721 14.9257 32.7143C14.8904 28.6002 8.50731 28.5967 8.54287 32.7143C8.65444 45.6576 19.2231 56.2266 32.1664 56.338C45.1111 56.4495 55.6804 45.4891 55.7904 32.7139C55.8259 28.5965 49.4431 28.6 49.4076 32.7141Z" fill="#5AD2ED"/>
<path d="M14.9257 31.5995C15.0073 22.1358 22.7026 14.4401 32.1664 14.3586C36.7491 14.3191 41.097 16.1999 44.3579 19.4083C47.6391 22.6367 49.3682 27.0419 49.4076 31.5995C49.443 35.7134 55.8258 35.7169 55.7904 31.5995C55.679 18.6563 45.1096 8.08688 32.1664 7.97569C19.2221 7.86438 8.65294 18.8243 8.54287 31.5995C8.50725 35.717 14.8902 35.7134 14.9257 31.5995Z" fill="#FFDEA7"/>
<path d="M36.8807 32.2781C36.8231 34.9138 34.7452 36.9912 32.1095 37.0488C29.473 37.1064 27.3946 34.8273 27.3388 32.2781C27.2812 29.6412 29.5606 27.563 32.1095 27.5072C34.7464 27.4495 36.8248 29.7289 36.8807 32.2781C36.9706 36.3878 43.3535 36.3966 43.2636 32.2781C43.1287 26.1135 38.2742 21.2592 32.1094 21.1243C25.9457 20.9896 21.0864 26.3173 20.9559 32.2781C20.8212 38.4418 26.1487 43.3013 32.1094 43.4317C38.2731 43.5666 43.1332 38.2391 43.2636 32.2781C43.3535 28.1597 36.9706 28.1685 36.8807 32.2781Z" fill="#38AAC3"/>
</svg>
