<svg width="119" height="28" viewBox="0 0 119 28" fill="none" xmlns="http://www.w3.org/2000/svg">
<path d="M13.4548 23.7016H9.69763V8.63354H4.03564V4.86327H19.1037V8.63354H13.4548V23.7016ZM32.1355 23.7016H31.2685L29.8759 21.7704C29.5344 22.077 29.1709 22.366 28.7856 22.6375C28.409 22.9003 28.0105 23.1323 27.5901 23.3338C27.1698 23.5264 26.7362 23.6797 26.2896 23.7936C25.8517 23.9074 25.405 23.9643 24.9496 23.9643C23.9599 23.9643 23.0272 23.7979 22.1514 23.4651C21.2844 23.1323 20.5224 22.6506 19.8656 22.0201C19.2175 21.3808 18.7052 20.6013 18.3286 19.6817C17.952 18.7621 17.7637 17.7155 17.7637 16.542C17.7637 15.4472 17.952 14.4445 18.3286 13.5336C18.7052 12.614 19.2175 11.8258 19.8656 11.169C20.5224 10.5121 21.2844 10.0042 22.1514 9.6451C23.0272 9.27727 23.9599 9.09335 24.9496 9.09335C25.405 9.09335 25.8561 9.15027 26.3027 9.26411C26.7494 9.37799 27.1829 9.53564 27.6033 9.73704C28.0236 9.93849 28.4221 10.175 28.7987 10.4465C29.1841 10.718 29.5431 11.0113 29.8759 11.3266L31.2685 9.65826H32.1355V23.7016ZM28.5228 16.542C28.5228 16.0515 28.4265 15.5786 28.2338 15.1232C28.0499 14.659 27.7959 14.2518 27.4719 13.9015C27.1479 13.5424 26.7669 13.2577 26.329 13.0475C25.8998 12.8286 25.4401 12.7191 24.9496 12.7191C24.4591 12.7191 23.995 12.8023 23.5571 12.9688C23.128 13.1351 22.7513 13.3804 22.4273 13.7044C22.112 14.0285 21.8624 14.4313 21.6785 14.913C21.4946 15.386 21.4026 15.9289 21.4026 16.542C21.4026 17.155 21.4946 17.7024 21.6785 18.1841C21.8624 18.657 22.112 19.0555 22.4273 19.3796C22.7513 19.7036 23.128 19.9488 23.5571 20.1152C23.995 20.2816 24.4591 20.3648 24.9496 20.3648C25.4401 20.3648 25.8998 20.2597 26.329 20.0495C26.7669 19.8306 27.1479 19.546 27.4719 19.1956C27.7959 18.8366 28.0499 18.4293 28.2338 17.9739C28.4265 17.5097 28.5228 17.0324 28.5228 16.542ZM42.6056 23.7016H34.4082V20.1284H42.6056C42.8508 20.1284 43.061 20.0408 43.2362 19.8656C43.4113 19.6904 43.4989 19.4803 43.4989 19.235C43.4989 18.981 43.4113 18.8147 43.2362 18.7358C43.061 18.657 42.8508 18.6176 42.6056 18.6176H38.8747C38.2529 18.6176 37.6705 18.4994 37.1275 18.2629C36.5845 18.0264 36.1116 17.7068 35.7087 17.3039C35.3059 16.8923 34.9862 16.415 34.7497 15.872C34.522 15.329 34.4082 14.7466 34.4082 14.1248C34.4082 13.503 34.522 12.9206 34.7497 12.3776C34.9862 11.8346 35.3059 11.3616 35.7087 10.9588C36.1116 10.5559 36.5845 10.2407 37.1275 10.0129C37.6705 9.77647 38.2529 9.65826 38.8747 9.65826H46.1395V13.2315H38.8747C38.6295 13.2315 38.4193 13.3191 38.2441 13.4942C38.069 13.6694 37.9814 13.8796 37.9814 14.1248C37.9814 14.3788 38.069 14.5977 38.2441 14.7816C38.4193 14.9568 38.6295 15.0443 38.8747 15.0443H42.6056C43.2186 15.0443 43.7967 15.1494 44.3397 15.3596C44.8827 15.5611 45.3556 15.8457 45.7585 16.2136C46.1614 16.5814 46.4809 17.0237 46.7176 17.5404C46.9538 18.0571 47.0724 18.622 47.0724 19.235C47.0724 19.8569 46.9538 20.4393 46.7176 20.9822C46.4809 21.5165 46.1614 21.9894 45.7585 22.401C45.3556 22.8039 44.8827 23.1236 44.3397 23.36C43.7967 23.5878 43.2186 23.7016 42.6056 23.7016ZM52.6029 23.7016H48.9901V4.03564H52.6029V16.4369L57.9493 9.65826H62.0745L57.4108 15.5173L62.0745 23.7016H57.9493L55.0987 18.5914L52.6029 21.9019V23.7016ZM82.5681 23.7016H78.8111V10.2494C78.8111 9.98666 78.7582 9.74145 78.6531 9.51373C78.5568 9.28601 78.421 9.08898 78.2461 8.92259C78.0797 8.74742 77.8825 8.61168 77.6551 8.51533C77.4272 8.41898 77.1817 8.3708 76.9194 8.3708C76.6563 8.3708 76.4112 8.41898 76.1837 8.51533C75.9559 8.61168 75.7545 8.74742 75.5792 8.92259C75.4128 9.08898 75.2816 9.28601 75.1849 9.51373C75.0887 9.74145 75.0407 9.98666 75.0407 10.2494V23.7016H71.2703V10.2494C71.2703 9.98666 71.222 9.74145 71.1257 9.51373C71.0295 9.28601 70.8937 9.08898 70.7188 8.92259C70.5523 8.74742 70.3552 8.61168 70.1273 8.51533C69.8999 8.41898 69.6544 8.3708 69.3917 8.3708C69.1289 8.3708 68.8838 8.41898 68.656 8.51533C68.4286 8.61168 68.2268 8.74742 68.0519 8.92259C67.8854 9.08898 67.7538 9.28601 67.6576 9.51373C67.5613 9.74145 67.513 9.98666 67.513 10.2494V23.7016H63.743V10.2494C63.743 9.46993 63.8876 8.73864 64.1764 8.05554C64.474 7.36366 64.8772 6.76374 65.385 6.25578C65.9016 5.73906 66.5015 5.3362 67.1846 5.04719C67.8766 4.74942 68.6123 4.60053 69.3917 4.60053C70.0924 4.60053 70.7667 4.72752 71.4149 4.9815C72.0627 5.22672 72.6454 5.5858 73.162 6.05873C73.6787 5.5858 74.2567 5.22672 74.8961 4.9815C75.5443 4.72752 76.2186 4.60053 76.9194 4.60053C77.6988 4.60053 78.4298 4.74942 79.113 5.04719C79.8049 5.3362 80.4048 5.73906 80.913 6.25578C81.4297 6.76374 81.8324 7.36366 82.1212 8.05554C82.4193 8.73864 82.5681 9.46993 82.5681 10.2494V23.7016ZM99.0285 23.7016H98.1617L96.769 21.7704C96.4276 22.077 96.064 22.366 95.6785 22.6375C95.3023 22.9003 94.9037 23.1323 94.4833 23.3338C94.063 23.5264 93.6296 23.6797 93.1827 23.7936C92.7447 23.9074 92.2982 23.9643 91.8429 23.9643C90.8529 23.9643 89.9205 23.7979 89.0445 23.4651C88.1776 23.1323 87.4155 22.6506 86.7589 22.0201C86.1106 21.3808 85.5982 20.6013 85.2219 19.6817C84.8453 18.7621 84.6569 17.7155 84.6569 16.542C84.6569 15.4472 84.8453 14.4445 85.2219 13.5336C85.5982 12.614 86.1106 11.8258 86.7589 11.169C87.4155 10.5121 88.1776 10.0042 89.0445 9.6451C89.9205 9.27727 90.8529 9.09335 91.8429 9.09335C92.2982 9.09335 92.7493 9.15027 93.1957 9.26411C93.6426 9.37799 94.076 9.53564 94.4964 9.73704C94.9168 9.93849 95.3153 10.175 95.6919 10.4465C96.077 10.718 96.4364 11.0113 96.769 11.3266L98.1617 9.65826H99.0285V23.7016ZM95.4162 16.542C95.4162 16.0515 95.3195 15.5786 95.127 15.1232C94.9428 14.659 94.6889 14.2518 94.3652 13.9015C94.0411 13.5424 93.6598 13.2577 93.2222 13.0475C92.793 12.8286 92.3331 12.7191 91.8429 12.7191C91.3524 12.7191 90.8883 12.8023 90.4502 12.9688C90.021 13.1351 89.6443 13.3804 89.3206 13.7044C89.0054 14.0285 88.7557 14.4313 88.5715 14.913C88.3878 15.386 88.2958 15.9289 88.2958 16.542C88.2958 17.155 88.3878 17.7024 88.5715 18.1841C88.7557 18.657 89.0054 19.0555 89.3206 19.3796C89.6443 19.7036 90.021 19.9488 90.4502 20.1152C90.8883 20.2816 91.3524 20.3648 91.8429 20.3648C92.3331 20.3648 92.793 20.2597 93.2222 20.0495C93.6598 19.8306 94.0411 19.546 94.3652 19.1956C94.6889 18.8366 94.9428 18.4293 95.127 17.9739C95.3195 17.5097 95.4162 17.0324 95.4162 16.542ZM105.361 23.7016H101.774V9.63195H102.641L103.824 10.9982C104.401 10.4727 105.054 10.0699 105.781 9.78959C106.517 9.50062 107.283 9.35609 108.08 9.35609C108.938 9.35609 109.748 9.52248 110.51 9.85529C111.272 10.1793 111.938 10.6304 112.507 11.2084C113.076 11.7777 113.523 12.4477 113.847 13.2183C114.18 13.9803 114.346 14.7948 114.346 15.6618V23.7016H110.76V15.6618C110.76 15.294 110.69 14.948 110.55 14.624C110.409 14.2912 110.217 14.0022 109.971 13.757C109.726 13.5117 109.442 13.3191 109.118 13.179C108.794 13.0388 108.448 12.9688 108.08 12.9688C107.703 12.9688 107.349 13.0388 107.016 13.179C106.683 13.3191 106.394 13.5117 106.149 13.757C105.903 14.0022 105.711 14.2912 105.571 14.624C105.43 14.948 105.361 15.294 105.361 15.6618V23.7016Z" fill="url(#paint0_linear_84_286)"/>
<defs>
<linearGradient id="paint0_linear_84_286" x1="7.73237" y1="14.1248" x2="114.677" y2="14.1248" gradientUnits="userSpaceOnUse">
<stop offset="0.0839996" stop-color="#5AD2ED"/>
<stop offset="0.479" stop-color="#84E0AE"/>
<stop offset="0.914" stop-color="#FFD184"/>
</linearGradient>
</defs>
</svg>
