<svg width="40" height="40" viewBox="0 0 40 40" fill="none" xmlns="http://www.w3.org/2000/svg">
<rect width="40" height="40" rx="20" fill="white"/>
<g clip-path="url(#clip0_86_1425)">
<path d="M28.8008 11.6124C27.29 10.6291 26.2006 9.05516 25.8601 7.22136C25.787 6.82524 25.7462 6.41719 25.7462 6H20.9254L20.9177 25.2917C20.8368 27.4521 19.0559 29.1862 16.8735 29.1862C16.1947 29.1862 15.5561 29.0169 14.9934 28.7212C13.7035 28.0435 12.8208 26.6936 12.8208 25.14C12.8208 22.9087 14.6389 21.0932 16.8727 21.0932C17.2898 21.0932 17.69 21.162 18.0684 21.28V16.3658C17.6767 16.3124 17.2786 16.2794 16.8727 16.2794C11.9803 16.2794 8 20.2539 8 25.14C8 28.1376 9.49954 30.7903 11.7882 32.3945C13.2294 33.4051 14.9828 34 16.8735 34C21.7659 34 25.7462 30.0255 25.7462 25.14V15.3572C27.6368 16.712 29.9536 17.5106 32.4533 17.5106V12.6968C31.1071 12.6968 29.8531 12.2971 28.8008 11.6124Z" fill="black"/>
</g>
<defs>
<clipPath id="clip0_86_1425">
<rect width="24.4533" height="28" fill="white" transform="translate(8 6)"/>
</clipPath>
</defs>
</svg>
