<svg width="40" height="40" viewBox="0 0 40 40" fill="none" xmlns="http://www.w3.org/2000/svg">
<g clip-path="url(#clip0_77_4357)">
<path d="M39.1641 10.7258C38.7041 8.99944 37.3489 7.64003 35.6277 7.17866C32.5084 6.34019 20 6.34019 20 6.34019C20 6.34019 7.49166 6.34019 4.37225 7.17866C2.65127 7.64003 1.29581 8.99944 0.835848 10.7258C0 13.8546 0 20.3827 0 20.3827C0 20.3827 0 26.9108 0.835848 30.0399C1.29581 31.766 2.65127 33.1254 4.37225 33.587C7.49166 34.4253 20 34.4253 20 34.4253C20 34.4253 32.5084 34.4253 35.6277 33.587C37.3489 33.1254 38.7041 31.766 39.1641 30.0399C40 26.9108 40 20.3827 40 20.3827C40 20.3827 40 13.8546 39.1641 10.7258Z" fill="#ED1D24"/>
<path d="M15.9092 26.3096L26.3637 20.3828L15.9092 14.4555V26.3096Z" fill="white"/>
</g>
<defs>
<clipPath id="clip0_77_4357">
<rect width="40" height="28.0851" fill="white" transform="translate(0 6.34033)"/>
</clipPath>
</defs>
</svg>
